<svg style="background:white;padding:0;margin:0;border-radius:5px;"
     height="50"
     width="60"
     xmlns="http://www.w3.org/2000/svg">

      <style>
            :root {
                  --grey: #5e5e3b;
                  --yellow: #737330;
                  --blue: #017a7a;
            }

            rect {
                  stroke: lightgrey;
                  stroke-width: 0.5;
                  fill: transparent;
            }

            rect:nth-of-type(9)~rect {
                  fill: transparent;
            }

            text {
                  font-family: avenir, tahoma;
                  font-size: 0.75rem;
            }

            path {
                  stroke: black;
                  fill: transparent;
                  stroke-linecap: round;
                  stroke-linejoin: round;
                  transform: rotate(90deg);
                  transform-origin: 35px 25px;
            }
      </style>

      <rect x="10"
            y="10"
            width="10"
            height="10" />
      <rect x="20"
            y="10"
            width="10"
            height="10" />
      <rect x="30"
            y="10"
            width="10"
            height="10" />
      <rect x="40"
            y="10"
            width="10"
            height="10" />

      <rect x="20"
            y="20"
            width="10"
            height="10" />
      <rect x="30"
            y="20"
            width="10"
            height="10" />
      <rect x="40"
            y="20"
            width="10"
            height="10" />

      <rect x="20"
            y="30"
            width="10"
            height="10" />
      <rect x="30"
            y="30"
            width="10"
            height="10" />
      <path class="start"></path>
      <rect x="40"
            y="30"
            width="10"
            height="10" />

      <path d="M25 15 L45 15 L25 25 L45 25 L25 35 L45 35 L39 32 M45 35 L39 38" />
</svg>