<svg style="background:white;padding:0;margin:0;border-radius:5px;"
     height="50"
     width="60"
     xmlns="http://www.w3.org/2000/svg">

      <style>
            :root {
                  --grey: #5e5e3b;
                  --yellow: #737330;
                  --blue: #017a7a;
            }

            rect {
                  stroke: lightgrey;
                  stroke-width: 0.5;
                  fill: transparent;
            }

            rect:nth-of-type(9)~rect {
                  fill: transparent;
            }

            text {
                  font-family: avenir, tahoma;
                  font-size: 0.75rem;
            }

            path {
                  stroke: black;
                  fill: transparent;
                  stroke-linecap: round;
                  stroke-linejoin: round;
            }
      </style>

      <rect x="10"
            y="10"
            width="10"
            height="10" />
      <rect x="20"
            y="10"
            width="10"
            height="10" />
      <rect x="30"
            y="10"
            width="10"
            height="10" />
      <rect x="40"
            y="10"
            width="10"
            height="10" />

      <rect x="20"
            y="20"
            width="10"
            height="10" />
      <rect x="30"
            y="20"
            width="10"
            height="10" />
      <rect x="40"
            y="20"
            width="10"
            height="10" />

      <rect x="20"
            y="30"
            width="10"
            height="10" />
      <rect x="30"
            y="30"
            width="10"
            height="10" />
      <path class="start"></path>
      <rect x="40"
            y="30"
            width="10"
            height="10" />

      <path d="M16 15 L35 15 L35 23 L38 18 M35 23 L32 18 M35 25 L15 25 L15 17 L12 22 M15 17 L18 22" />
</svg>