<svg style="background:white;padding:0;margin:0;border-radius:5px;"
     height="50"
     width="60"
     xmlns="http://www.w3.org/2000/svg">

      <style>
            :root {
                  --grey: #5e5e3b;
                  --yellow: #737330;
                  --blue: #017a7a;
                  transform: rotate(90deg);
            }

            rect {
                  stroke: black;
                  stroke-width: 0.5;
                  fill: var(--grey);
            }

            rect:nth-of-type(7)~rect {
                  fill: transparent;
            }

            text {
                  font-family: avenir, tahoma;
                  font-size: 0.75rem;
            }
      </style>

      <rect x="10"
            y="10"
            width="10"
            height="10" />
      <rect x="20"
            y="10"
            width="10"
            height="10" />
      <rect x="30"
            y="10"
            width="10"
            height="10" />
      <rect x="40"
            y="10"
            width="10"
            height="10" />

      <rect x="20"
            y="20"
            width="10"
            height="10" />
      <rect x="30"
            y="20"
            width="10"
            height="10" />
      <rect x="40"
            y="20"
            width="10"
            height="10" />

      <path class="start"></path>
      <rect x="20"
            y="30"
            width="10"
            height="10" />
      <rect x="30"
            y="30"
            width="10"
            height="10" />
      <rect x="40"
            y="30"
            width="10"
            height="10" />

      <text x="12"
            y="19"
            fill="black">0</text>
      <text x="22"
            y="19"
            fill="black">1</text>
      <text x="32"
            y="19"
            fill="black">2</text>
      <text x="42"
            y="19"
            fill="black">3</text>

      <text x="22"
            y="29"
            fill="black">4</text>
      <text x="32"
            y="29"
            fill="black">5</text>
      <text x="42"
            y="29"
            fill="black">6</text>

      <text x="22"
            y="39"
            fill="black">7</text>
      <text x="32"
            y="39"
            fill="black">8</text>
      <text x="42"
            y="39"
            fill="black">9</text>
</svg>